<svg xmlns="http://www.w3.org/2000/svg" viewBox="45 37 280 280" width="32" height="32"><g clip-path="url(#clip)"><clipPath id="clip"><path d="M 45.308594 37.5 L 322.058594 37.5 L 322.058594 314.25 L 45.308594 314.25 Z"/></clipPath><path fill="#1a6b7a" d="M 45.308594 175.875 L 45.308594 37.5 L 322.058594 37.5 L 322.058594 314.25 L 45.308594 314.25 Z M 140.015625 304.425781 C 140.289062 304.316406 140.566406 303.953125 140.679688 303.652344 C 140.789062 303.316406 140.871094 270.246094 140.84375 230.171875 C 140.816406 167.820312 140.734375 156.945312 140.402344 154.621094 C 140.179688 153.152344 139.902344 150.828125 139.792969 149.445312 C 139.710938 148.089844 139.378906 146.234375 139.101562 145.347656 C 138.824219 144.4375 138.574219 143.300781 138.574219 142.832031 C 138.574219 142.359375 138.324219 141.449219 138.050781 140.839844 C 137.773438 140.203125 137.441406 139.289062 137.328125 138.789062 C 137.21875 138.292969 136.886719 137.488281 136.609375 137.019531 C 136.332031 136.546875 136.085938 135.996094 136.085938 135.828125 C 136.085938 135.136719 132.902344 129.769531 130.992188 127.167969 C 128.832031 124.261719 123.769531 119.058594 121.25 117.175781 C 120.335938 116.511719 119.230469 115.683594 118.789062 115.351562 C 117.402344 114.324219 111.921875 110.699219 111.175781 110.339844 C 110.789062 110.148438 109.929688 109.621094 109.238281 109.179688 C 108.546875 108.734375 107.578125 108.183594 107.082031 107.960938 C 106.582031 107.738281 105.53125 107.128906 104.726562 106.605469 C 103.953125 106.078125 102.042969 104.945312 100.523438 104.058594 C 94.710938 100.738281 90.421875 97.304688 87.320312 93.488281 C 86.128906 92.046875 85.160156 90.71875 85.160156 90.554688 C 85.160156 90.359375 84.914062 89.917969 84.609375 89.527344 C 84.304688 89.140625 84.054688 88.644531 84.054688 88.421875 C 84.054688 88.171875 83.777344 87.480469 83.445312 86.898438 C 82.863281 85.847656 82.808594 85.460938 82.808594 80.394531 C 82.808594 75.082031 82.808594 74.972656 83.613281 73.089844 C 84.96875 69.742188 86.90625 67.609375 90.753906 65.09375 C 93.464844 63.320312 97.976562 61.796875 102.042969 61.273438 C 104.339844 60.996094 113.5 60.996094 116.019531 61.273438 C 118.289062 61.550781 122.882812 62.574219 123.574219 62.960938 C 123.824219 63.128906 124.792969 63.488281 125.707031 63.761719 C 128.113281 64.539062 129.71875 65.148438 130.992188 65.757812 C 131.601562 66.03125 132.210938 66.28125 132.320312 66.28125 C 132.429688 66.808594 133.621094 66.808594 134.949219 67.417969 C 136.25 68.054688 137.578125 68.660156 137.882812 68.800781 C 138.1875 68.9375 139.074219 69.410156 139.820312 69.878906 C 140.59375 70.324219 141.453125 70.792969 141.785156 70.960938 C 142.699219 71.375 146.515625 73.894531 149.3125 75.914062 C 151.886719 77.738281 152.300781 78.070312 153.574219 79.152344 C 153.90625 79.457031 155.457031 80.757812 156.980469 82.027344 C 163.925781 87.839844 173.554688 99.296875 177.292969 106.246094 C 177.707031 107.019531 178.316406 108.070312 178.621094 108.597656 C 179.808594 110.507812 184.238281 119.667969 184.238281 120.21875 C 184.238281 120.414062 184.433594 120.914062 184.652344 121.300781 C 185.375 122.628906 187.007812 127.582031 187.808594 131.042969 C 188.085938 132.175781 188.5 133.808594 188.75 134.640625 C 188.972656 135.46875 189.246094 136.964844 189.359375 137.960938 C 189.46875 138.957031 189.746094 140.5625 189.96875 141.558594 C 190.300781 142.941406 190.410156 145.015625 190.4375 150.691406 C 190.4375 157.195312 190.382812 158.382812 189.828125 161.34375 C 189 165.746094 188.777344 166.632812 188.25 168.265625 C 188.003906 169.039062 187.503906 170.644531 187.117188 171.863281 C 186.730469 173.078125 186.203125 174.574219 185.898438 175.183594 C 185.621094 175.792969 185.261719 176.59375 185.097656 176.980469 C 184.929688 177.371094 184.679688 177.867188 184.542969 178.089844 C 184.40625 178.308594 183.574219 179.695312 182.6875 181.132812 C 180.667969 184.507812 177.84375 188.078125 175.273438 190.460938 C 173.25 192.339844 168.546875 195.746094 166.582031 196.742188 C 164.699219 197.710938 161.128906 199.175781 160.023438 199.425781 C 159.414062 199.59375 158.417969 199.871094 157.808594 200.0625 C 157.199219 200.285156 155.402344 200.535156 153.824219 200.644531 C 149.175781 200.949219 148.539062 201.417969 148.539062 204.351562 C 148.539062 205.820312 148.648438 206.402344 149.0625 206.898438 C 149.5625 207.507812 149.78125 207.5625 152.328125 207.5625 C 157.117188 207.5625 168.019531 206.898438 170.011719 206.484375 Z M 140.015625 304.425781 " fill-opacity="0.15" fill-rule="nonzero"/></g><path fill="#14c2e0" d="M 57.984375 305.449219 C 57.433594 305.394531 56.824219 305.171875 56.601562 304.921875 C 56.296875 304.5625 56.242188 287.652344 56.242188 207.589844 L 56.242188 110.699219 L 56.878906 107.101562 C 57.984375 100.792969 59.007812 96.226562 59.671875 94.371094 C 59.949219 93.625 60.449219 92.128906 60.78125 91.050781 C 61.113281 90 61.722656 88.367188 62.109375 87.453125 C 68.558594 72.398438 77.054688 62.269531 90.28125 53.773438 C 93.214844 51.890625 93.769531 51.558594 95.125 50.839844 C 98.140625 49.234375 98.972656 48.820312 100.9375 48.015625 C 102.070312 47.546875 103.511719 46.910156 104.148438 46.632812 C 104.785156 46.328125 105.449219 46.078125 105.613281 46.078125 C 105.808594 46.078125 106.417969 45.832031 106.96875 45.554688 C 108.355469 44.832031 111.648438 43.589844 112.144531 43.589844 C 112.367188 43.589844 113.28125 43.339844 114.136719 43.0625 C 115.023438 42.757812 116.269531 42.453125 116.933594 42.371094 C 117.570312 42.261719 118.898438 41.957031 119.839844 41.679688 C 123.269531 40.628906 127.144531 39.90625 130.273438 39.6875 C 132.015625 39.574219 134.949219 39.269531 136.777344 38.996094 C 141.425781 38.273438 159.609375 38.273438 164.035156 38.996094 C 165.640625 39.269531 168.683594 39.574219 170.816406 39.714844 C 172.945312 39.878906 176.324219 40.210938 178.289062 40.515625 C 180.28125 40.820312 182.828125 41.179688 183.960938 41.320312 C 185.097656 41.457031 186.839844 41.761719 187.835938 42.011719 C 189.71875 42.453125 191.183594 42.757812 194.894531 43.449219 C 196.109375 43.671875 197.660156 44.058594 198.351562 44.28125 C 199.042969 44.5 200.289062 44.863281 201.121094 45.082031 C 204.304688 45.914062 205.160156 46.164062 206.378906 46.550781 C 207.070312 46.742188 208.371094 47.160156 209.285156 47.433594 C 210.199219 47.738281 211.832031 48.292969 212.882812 48.707031 C 213.960938 49.125 215.371094 49.621094 216.066406 49.871094 C 216.757812 50.09375 217.558594 50.398438 217.835938 50.5625 C 218.113281 50.699219 219 51.0625 219.773438 51.335938 C 225.558594 53.359375 229.015625 54.964844 235.160156 58.5625 C 244.097656 63.792969 249.136719 67.582031 255.390625 73.78125 C 258.710938 77.101562 261.699219 80.367188 262.558594 81.640625 C 262.78125 82 263.417969 82.941406 263.96875 83.746094 C 265.4375 85.988281 265.960938 86.789062 266.628906 88.007812 C 267.707031 89.945312 269.976562 94.621094 270.167969 95.339844 C 270.28125 95.726562 270.527344 96.28125 270.722656 96.613281 C 271.054688 97.140625 271.277344 97.777344 272.355469 101.707031 C 273.710938 106.632812 274.652344 113.71875 274.542969 118.171875 C 274.460938 122.15625 273.851562 128.910156 273.492188 130.15625 C 273.242188 130.929688 272.882812 132.480469 272.660156 133.585938 C 272.160156 136.273438 271 140.339844 270.667969 140.78125 C 270.5 140.976562 270.28125 141.585938 270.167969 142.113281 C 270.058594 142.636719 269.699219 143.632812 269.394531 144.324219 C 269.089844 145.015625 268.59375 146.179688 268.261719 146.898438 C 266.875 150.054688 264.414062 154.785156 262.753906 157.445312 C 258.824219 163.808594 256.304688 166.910156 250.242188 172.996094 C 246.535156 176.707031 242.6875 180.136719 240.695312 181.492188 C 240.308594 181.742188 239.144531 182.542969 238.09375 183.292969 C 237.070312 184.011719 235.933594 184.785156 235.601562 185.007812 C 235.269531 185.230469 234.550781 185.753906 234.027344 186.199219 C 233.03125 186.945312 231.589844 187.804688 229.488281 188.910156 C 228.019531 189.65625 227.050781 190.210938 225.03125 191.457031 C 224.089844 192.007812 223.261719 192.480469 223.148438 192.480469 C 223.066406 192.480469 221.683594 193.117188 220.078125 193.863281 C 218.472656 194.636719 217.089844 195.246094 216.976562 195.246094 C 216.839844 195.246094 216.398438 195.441406 215.925781 195.691406 C 215.152344 196.105469 214.433594 196.382812 211.082031 197.570312 C 210.390625 197.820312 209.589844 198.152344 209.3125 198.320312 C 208.703125 198.679688 206.460938 199.480469 204.027344 200.230469 C 203.113281 200.503906 201.867188 200.921875 201.257812 201.167969 C 200.648438 201.390625 199.929688 201.585938 199.625 201.613281 C 199.347656 201.613281 198.046875 201.917969 196.71875 202.304688 C 195.417969 202.691406 193.648438 203.21875 192.816406 203.46875 C 191.988281 203.714844 190.355469 204.074219 189.21875 204.269531 C 188.085938 204.492188 186.453125 204.824219 185.621094 205.070312 C 184.792969 205.292969 183.769531 205.488281 183.351562 205.488281 C 182.910156 205.488281 181.472656 205.734375 180.144531 206.011719 C 178.8125 206.289062 176.628906 206.621094 175.246094 206.734375 C 173.886719 206.816406 171.894531 207.09375 170.84375 207.3125 C 168.710938 207.757812 157.835938 208.394531 152.328125 208.394531 C 147.761719 208.394531 147.707031 208.367188 147.707031 204.351562 C 147.707031 200.476562 148.09375 200.144531 152.992188 199.8125 C 154.570312 199.703125 156.371094 199.453125 156.980469 199.234375 C 157.585938 199.039062 158.582031 198.761719 159.191406 198.597656 C 160.300781 198.347656 163.871094 196.878906 165.75 195.910156 C 167.714844 194.914062 172.421875 191.511719 174.441406 189.628906 C 177.015625 187.25 179.839844 183.679688 181.859375 180.304688 C 182.742188 178.863281 183.574219 177.480469 183.710938 177.257812 C 183.851562 177.039062 184.101562 176.539062 184.265625 176.152344 C 184.433594 175.765625 184.792969 174.960938 185.070312 174.351562 C 185.375 173.742188 185.898438 172.25 186.285156 171.03125 C 186.675781 169.8125 187.171875 168.210938 187.421875 167.433594 C 187.976562 165.800781 188.167969 164.886719 188.972656 160.515625 C 189.523438 157.636719 189.609375 156.308594 189.578125 150.691406 C 189.578125 145.820312 189.46875 143.746094 189.136719 142.386719 C 188.914062 141.390625 188.640625 139.785156 188.527344 138.789062 C 188.417969 137.792969 188.140625 136.300781 187.917969 135.46875 C 187.671875 134.640625 187.253906 133.007812 186.976562 131.871094 C 186.175781 128.414062 184.542969 123.457031 183.824219 122.128906 C 183.601562 121.742188 183.410156 121.246094 183.410156 121.050781 C 183.410156 120.496094 178.980469 111.335938 177.789062 109.425781 C 177.484375 108.902344 176.878906 107.851562 176.460938 107.074219 C 172.726562 100.128906 163.09375 88.671875 156.148438 82.859375 C 154.625 81.585938 153.078125 80.285156 152.746094 79.980469 C 151.472656 78.902344 151.054688 78.570312 148.484375 76.742188 C 145.6875 74.722656 141.867188 72.203125 140.953125 71.789062 C 140.621094 71.625 139.765625 71.152344 138.988281 70.710938 C 138.242188 70.238281 137.355469 69.769531 137.050781 69.628906 C 136.75 69.492188 135.417969 68.882812 134.117188 68.246094 C 132.789062 67.636719 131.601562 67.113281 131.488281 67.113281 C 131.378906 67.113281 130.769531 66.863281 130.160156 66.585938 C 128.886719 65.976562 127.285156 65.367188 124.875 64.59375 C 123.960938 64.316406 122.992188 63.957031 122.746094 63.792969 C 122.054688 63.402344 117.457031 62.378906 115.1875 62.101562 C 112.671875 61.828125 105.171875 61.828125 102.875 62.101562 C 98.804688 62.628906 94.292969 64.152344 91.582031 65.921875 C 87.734375 68.441406 85.796875 70.570312 84.441406 73.921875 C 83.667969 75.746094 83.640625 75.996094 83.640625 80.394531 C 83.667969 84.601562 83.695312 85.046875 84.277344 86.070312 C 84.609375 86.652344 84.886719 87.34375 84.886719 87.589844 C 84.886719 87.8125 85.132812 88.3125 85.4375 88.699219 C 85.742188 89.085938 85.992188 89.527344 85.992188 89.722656 C 85.992188 89.890625 86.960938 91.21875 88.152344 92.65625 C 91.25 96.476562 95.539062 99.90625 101.351562 103.226562 C 102.875 104.113281 104.785156 105.25 105.558594 105.773438 C 106.359375 106.300781 107.414062 106.910156 107.910156 107.128906 C 108.410156 107.351562 109.378906 107.90625 110.070312 108.347656 C 110.761719 108.789062 111.621094 109.316406 112.007812 109.511719 C 112.753906 109.871094 118.234375 113.496094 119.617188 114.519531 C 120.058594 114.851562 121.167969 115.683594 122.082031 116.347656 C 124.597656 118.226562 129.664062 123.429688 131.820312 126.335938 C 133.730469 128.9375 136.914062 134.308594 136.914062 135 C 136.914062 135.164062 137.164062 135.71875 137.441406 136.1875 C 137.71875 136.660156 138.050781 137.460938 138.160156 137.960938 C 138.269531 138.457031 138.601562 139.371094 138.878906 140.007812 C 139.15625 140.617188 139.40625 141.53125 139.40625 142 C 139.40625 142.472656 139.652344 143.605469 139.929688 144.519531 C 140.207031 145.40625 140.539062 147.257812 140.621094 148.613281 C 140.734375 150 141.011719 152.351562 141.230469 153.875 C 141.589844 156.253906 141.648438 166.382812 141.675781 230.257812 C 141.703125 270.746094 141.617188 304.148438 141.507812 304.480469 C 141.425781 304.785156 141.121094 305.144531 140.84375 305.253906 C 140.402344 305.449219 60.089844 305.644531 57.984375 305.449219 Z" fill-opacity="1" fill-rule="nonzero"/></svg>