<svg xmlns="http://www.w3.org/2000/svg" viewBox="45 37 280 280"><path fill="#14c2e0" d="M 57.984375 305.449219 C 57.433594 305.394531 56.824219 305.171875 56.601562 304.921875 C 56.296875 304.5625 56.242188 287.652344 56.242188 207.589844 L 56.242188 110.699219 L 56.878906 107.101562 C 57.984375 100.792969 59.007812 96.226562 59.671875 94.371094 C 68.558594 72.398438 77.054688 62.269531 90.28125 53.773438 C 93.214844 51.890625 95.125 50.839844 98.140625 49.234375 C 100.9375 48.015625 104.148438 46.632812 106.96875 45.554688 C 108.355469 44.832031 112.144531 43.589844 116.933594 42.371094 C 123.269531 40.628906 130.273438 39.6875 136.777344 38.996094 C 141.425781 38.273438 159.609375 38.273438 164.035156 38.996094 C 170.816406 39.714844 178.289062 40.515625 187.835938 42.011719 C 194.894531 43.449219 201.121094 45.082031 209.285156 47.433594 C 219.773438 51.335938 229.015625 54.964844 235.160156 58.5625 C 244.097656 63.792969 255.390625 73.78125 262.558594 81.640625 C 266.628906 88.007812 270.167969 95.339844 272.355469 101.707031 C 273.710938 106.632812 274.542969 118.171875 273.492188 130.15625 C 272.660156 133.585938 271 140.339844 268.261719 146.898438 C 266.875 150.054688 262.753906 157.445312 250.242188 172.996094 C 246.535156 176.707031 240.695312 181.492188 234.027344 186.199219 C 229.488281 188.910156 225.03125 191.457031 216.976562 195.246094 C 211.082031 197.570312 204.027344 200.230469 196.71875 202.304688 C 191.988281 203.714844 185.621094 205.070312 180.144531 206.011719 C 175.246094 206.734375 168.710938 207.757812 152.328125 208.394531 C 147.761719 208.394531 147.707031 208.367188 147.707031 204.351562 C 147.707031 200.476562 152.992188 199.8125 156.980469 199.234375 C 160.300781 198.347656 165.75 195.910156 174.441406 189.628906 C 179.839844 183.679688 184.265625 176.152344 186.285156 171.03125 C 187.976562 165.800781 189.578125 156.308594 189.578125 150.691406 C 189.578125 145.820312 188.527344 138.789062 186.976562 131.871094 C 183.824219 122.128906 177.789062 109.425781 156.148438 82.859375 C 148.484375 76.742188 140.953125 71.789062 131.488281 67.113281 C 124.875 64.59375 115.1875 62.101562 102.875 62.101562 C 94.292969 64.152344 87.734375 68.441406 84.441406 73.921875 C 83.640625 80.394531 84.277344 86.070312 88.152344 92.65625 C 95.539062 99.90625 105.558594 105.773438 112.007812 109.511719 C 122.082031 116.347656 131.820312 126.335938 138.160156 137.960938 C 140.621094 148.613281 141.675781 230.257812 141.507812 304.480469 C 141.121094 305.144531 60.089844 305.644531 57.984375 305.449219 Z"/></svg>